<svg xmlns="http://www.w3.org/2000/svg" xmlns:xlink="http://www.w3.org/1999/xlink" version="1.1" x="0px" y="0px" viewBox="0 0 90 112.5" enable-background="new 0 0 90 90" xml:space="preserve"><g><path d="M79.888,35.338c-3.123-3.138-12.019-6.73-19.976-9.496c2.938-2.428,4.723-5.579,4.723-9.031   c0-7.683-8.793-13.908-19.638-13.908c-10.839,0-19.631,6.225-19.631,13.908c0,3.44,1.769,6.579,4.683,9.007   c-7.934,2.724-16.762,6.252-19.882,9.36c-6.5,6.47-6.527,17.023-0.057,23.523c3.147,3.163,7.332,4.904,11.794,4.904   c2.467,0,4.853-0.557,7.026-1.572c3.039,7.359,7.743,13.696,11.323,18.491c0.949,1.271,1.811,2.425,2.521,3.44l2.18,3.133   l2.177-3.126c0.707-1.022,1.572-2.171,2.521-3.447c3.573-4.776,8.26-11.096,11.305-18.431c2.204,1.046,4.622,1.621,7.142,1.621   c4.429,0,8.598-1.724,11.733-4.85C86.333,52.395,86.36,41.842,79.888,35.338z M43.325,38.241c1.128-0.037,2.259-0.037,3.39,0   c0.988,2.909,2.089,5.962,3.247,8.839c-3.299-0.388-6.634-0.388-9.929-0.007C41.203,44.206,42.321,41.149,43.325,38.241z    M13.877,54.959c-4.408-4.427-4.39-11.612,0.036-16.017c3.129-3.114,16.834-7.97,27.211-11.108   c-3.184,10.358-8.1,24.041-11.232,27.161c-2.141,2.128-4.977,3.295-7.988,3.295C18.866,58.29,16.015,57.105,13.877,54.959z    M51.954,67.953c-4.577-1.264-9.415-1.258-13.986,0.019c-1.491-2.419-2.891-5.007-4.033-7.722   c7.15-2.401,14.899-2.407,22.053-0.024C54.845,62.94,53.444,65.534,51.954,67.953z M76.087,55.104   c-2.138,2.123-4.974,3.296-7.987,3.296c-3.036,0-5.891-1.186-8.027-3.332c-3.114-3.132-7.97-16.836-11.108-27.215   c10.358,3.187,24.042,8.103,27.159,11.235C80.525,43.51,80.51,50.695,76.087,55.104z"/></g><text x="0" y="105" fill="#000000" font-size="5px" font-weight="bold" font-family="'Helvetica Neue', Helvetica, Arial-Unicode, Arial, Sans-serif">Created by Yazmin Alanis</text><text x="0" y="110" fill="#000000" font-size="5px" font-weight="bold" font-family="'Helvetica Neue', Helvetica, Arial-Unicode, Arial, Sans-serif">from the Noun Project</text></svg>